# xmcd
#
# Track frame offsets:
#	183
#	36705
#	61965
#	86083
#	135513
#	171383
#	192988
#	229733
#	254650
#	271400
#	283665
#
# Disc length: 4096 seconds
#
# Revision: 0
# Processed by: cddbd v1.5.1PL0 Copyright (c) Steve Scherf et al.
# Submitted via: EasyCDDAExtractor 8.0.1.1
#
DISCID=ab0ffe0b
DTITLE=Various Artist - Ballads In Blue
DYEAR=1991
DGENRE=Blues
TTITLE0=Stanley Turrentine - A Child Is Born
TTITLE1=Lee Morgan - Since I Fell For You
TTITLE2=Dexter Gordon - Guess I'll Hang My Tears Out To Dry
TTITLE3=Cannonball Adderley - Autumn Leaves
TTITLE4=John Coltrane - I'm Old Fashioned
TTITLE5=Freddie Hubbard - Cry Me Not
TTITLE6=Bobby Hutcherson - Boquet
TTITLE7=Pete Laroca - Lazy Afternoon
TTITLE8=Clifford Brown - Easy Living
TTITLE9=Ike Quebec - Nature Boy
TTITLE10=Mccoy Turner - You Taught My Heart To Sing
EXTD=
EXTT0=
EXTT1=
EXTT2=
EXTT3=
EXTT4=
EXTT5=
EXTT6=
EXTT7=
EXTT8=
EXTT9=
EXTT10=
PLAYORDER=
